<svg width="26" height="26" viewBox="0 0 26 26" fill="none" xmlns="http://www.w3.org/2000/svg">
<path d="M13 22.9023C18.4689 22.9023 22.9023 18.4689 22.9023 13C22.9023 7.53109 18.4689 3.09766 13 3.09766C7.53109 3.09766 3.09766 7.53109 3.09766 13C3.09766 18.4689 7.53109 22.9023 13 22.9023ZM13 25.1875C6.26902 25.1875 0.8125 19.731 0.8125 13C0.8125 6.26902 6.26902 0.8125 13 0.8125C19.731 0.8125 25.1875 6.26902 25.1875 13C25.1875 19.731 19.731 25.1875 13 25.1875ZM11.278 15.4655L8.22199 12.4095C7.77578 11.9633 7.05235 11.9633 6.60613 12.4095C6.15994 12.8557 6.15994 13.5792 6.60613 14.0254L10.2489 17.6682C10.8172 18.2365 11.7387 18.2365 12.307 17.6682L18.9348 11.0404C19.381 10.5941 19.381 9.87071 18.9348 9.42449C18.4886 8.9783 17.7652 8.9783 17.3189 9.42449L11.278 15.4655Z" fill="#80E400"/>
</svg>
